<svg width="272" height="183" viewBox="0 0 272 183" fill="none" xmlns="http://www.w3.org/2000/svg">
<path d="M7.7954 0.130583C8.24684 -0.144848 8.85549 0.0296284 9.15486 0.520287L14.0334 8.51614C14.3328 9.0068 14.2095 9.62785 13.7581 9.90329C13.3066 10.1787 12.698 10.0043 12.3986 9.51358L8.06212 2.40616L1.52293 6.39595C1.07149 6.67139 0.462837 6.49691 0.163466 6.00625C-0.135906 5.51558 -0.012632 4.89453 0.438806 4.61909L7.7954 0.130583ZM189.135 14.4891L188.94 15.47L189.135 14.4891ZM8.33746 1.01901L9.29875 1.29457C8.87654 3.42163 8.48698 5.49402 8.12937 7.51286L7.16426 7.25769L6.19915 7.00252C6.55928 4.96943 6.95141 2.88342 7.37618 0.743449L8.33746 1.01901ZM5.32853 19.2609L6.30121 19.4661C5.75407 23.8005 5.38412 27.8353 5.18132 31.5861L4.20205 31.4542L3.22277 31.3224C3.42856 27.5164 3.80338 23.4322 4.35585 19.0556L5.32853 19.2609ZM4.17499 43.8401L5.15394 43.853C5.42455 48.4322 6.03458 52.4152 6.94555 55.8571L6.00104 56.0584L5.05653 56.2596C4.10087 52.6489 3.47327 48.5187 3.19604 43.8273L4.17499 43.8401ZM11.3173 67.422L12.0616 66.8175C14.6131 70.0933 17.8004 72.284 21.5456 73.5717L21.3008 74.5368L21.056 75.5019C16.9523 74.0908 13.4056 71.6632 10.573 68.0266L11.3173 67.422ZM33.1479 75.9854L33.0319 74.9676C36.6004 74.8018 40.4388 74.1945 44.5014 73.2168L44.7888 74.2103L45.0762 75.2038C40.932 76.2012 36.9763 76.8308 33.2638 77.0032L33.1479 75.9854ZM55.9697 70.8346L55.5923 69.8677C59.1016 68.622 62.7177 67.1855 66.4156 65.5979L66.8462 66.5439L67.2768 67.4899C63.5508 69.0895 59.8988 70.5405 56.347 71.8014L55.9697 70.8346ZM77.4917 61.6902L77.0276 60.7594C80.4565 59.1154 83.9299 57.3814 87.43 55.5862L87.9153 56.5065L88.4005 57.4268C84.8894 59.2276 81.4016 60.9689 77.9557 62.621L77.4917 61.6902ZM98.242 51.0925L97.7439 50.1789C101.161 48.3548 104.586 46.5006 108.002 44.6425L108.506 45.5528L109.01 46.4631C105.593 48.3221 102.163 50.1788 98.74 52.0061L98.242 51.0925ZM118.743 39.9765L118.239 39.0662C121.691 37.1883 125.118 35.3339 128.5 33.5319L128.997 34.4457L129.495 35.3596C126.119 37.1582 122.698 39.0099 119.247 40.8868L118.743 39.9765ZM139.358 29.0373L138.876 28.1156C142.461 26.292 145.972 24.5655 149.385 22.9741L149.84 23.9089L150.296 24.8438C146.905 26.4248 143.413 28.142 139.841 29.9589L139.358 29.0373ZM160.515 19.2776L160.108 18.3218C164.041 16.7665 167.792 15.4774 171.315 14.5297L171.625 15.5173L171.936 16.5049C168.495 17.4305 164.81 18.6955 160.922 20.2333L160.515 19.2776ZM183.248 13.7362L183.176 12.7174C185.377 12.7175 187.438 12.966 189.329 13.5083L189.135 14.4891L188.94 15.47C187.261 14.9886 185.385 14.7552 183.321 14.755L183.248 13.7362ZM189.135 14.4891L189.329 13.5083C191.295 14.0719 193.162 14.7628 194.934 15.5734L194.596 16.5011L194.258 17.4288C192.582 16.6623 190.811 16.0065 188.94 15.47L189.135 14.4891ZM204.364 23.0173L204.984 22.2778C207.94 25.0041 210.499 28.1812 212.721 31.7197L211.911 32.2308L211.101 32.7418C208.972 29.3498 206.536 26.3323 203.744 23.7569L204.364 23.0173ZM217.246 42.931L218.15 42.6047C219.588 46.238 220.813 50.0921 221.863 54.1107L220.917 54.3085L219.972 54.5064C218.94 50.5587 217.742 46.7924 216.343 43.2574L217.246 42.931ZM223.419 65.8928L224.384 65.7813C225.064 69.625 225.633 73.5651 226.119 77.5622L225.147 77.6156L224.174 77.669C223.691 73.7032 223.127 69.8026 222.455 66.0044L223.419 65.8928ZM226.347 89.3439L227.323 89.3284C227.659 93.2423 227.942 97.1766 228.197 101.096L227.218 101.09L226.239 101.083C225.986 97.1727 225.704 93.254 225.37 89.3594L226.347 89.3439ZM227.921 112.842L228.9 112.857C229.127 116.831 229.348 120.751 229.589 124.586L228.61 124.577L227.632 124.569C227.39 120.726 227.168 116.798 226.942 112.827L227.921 112.842ZM229.47 136.341L230.447 136.324C230.798 140.384 231.21 144.28 231.717 147.962L230.746 148.032L229.775 148.103C229.262 144.375 228.847 140.441 228.493 136.357L229.47 136.341ZM232.901 159.705L233.851 159.523C234.888 163.747 236.167 167.439 237.761 170.494L236.907 170.927L236.052 171.36C234.347 168.094 233.016 164.217 231.952 159.887L232.901 159.705ZM244.843 179.578L245.237 178.678C248.035 180.164 251.442 180.738 255.647 180.123L255.853 181.133L256.06 182.142C251.548 182.801 247.705 182.208 244.449 180.478L244.843 179.578ZM266.394 177.819L265.948 176.88C267.53 176.163 269.187 175.329 270.921 174.373L271.43 175.281L271.938 176.189C270.168 177.165 268.47 178.02 266.841 178.758L266.394 177.819Z" fill="none" stroke="#2B3A52" stroke-width="2.5" stroke-linecap="round" stroke-dasharray="6 10"/>
</svg>
