<svg width="70" height="70" viewBox="0 0 70 70" fill="none" xmlns="http://www.w3.org/2000/svg">
<rect width="70" height="70" rx="5.59661" fill="white"/>
<path fill-rule="evenodd" clip-rule="evenodd" d="M35 35C35 31.7154 37.6627 29.0527 40.9473 29.0527C44.2318 29.0527 46.8945 31.7154 46.8945 35C46.8945 38.2846 44.2318 40.9473 40.9473 40.9473C37.6627 40.9473 35 38.2846 35 35Z" fill="#1ABCFE"/>
<path fill-rule="evenodd" clip-rule="evenodd" d="M23.1055 46.8945C23.1055 43.6099 25.7682 40.9473 29.0527 40.9473H35V46.8945C35 50.1791 32.3373 52.8418 29.0527 52.8418C25.7682 52.8418 23.1055 50.1791 23.1055 46.8945Z" fill="#0ACF83"/>
<path fill-rule="evenodd" clip-rule="evenodd" d="M35 17.1582V29.0527H40.9473C44.2318 29.0527 46.8945 26.3901 46.8945 23.1055C46.8945 19.8209 44.2318 17.1582 40.9473 17.1582H35Z" fill="#FF7262"/>
<path fill-rule="evenodd" clip-rule="evenodd" d="M23.1055 23.1055C23.1055 26.3901 25.7682 29.0527 29.0527 29.0527H35V17.1582H29.0527C25.7682 17.1582 23.1055 19.8209 23.1055 23.1055Z" fill="#F24E1E"/>
<path fill-rule="evenodd" clip-rule="evenodd" d="M23.1055 35C23.1055 38.2846 25.7682 40.9473 29.0527 40.9473H35V29.0527H29.0527C25.7682 29.0527 23.1055 31.7154 23.1055 35Z" fill="#A259FF"/>
</svg>
