<svg width="22" height="22" viewBox="0 0 22 22" fill="none" xmlns="http://www.w3.org/2000/svg">
<path d="M10.8631 7.24244C8.86784 7.24244 7.23959 8.87072 7.23959 10.866C7.23959 12.8612 8.86784 14.4895 10.8631 14.4895C12.8583 14.4895 14.4865 12.8612 14.4865 10.866C14.4865 8.87072 12.8583 7.24244 10.8631 7.24244ZM21.7307 10.866C21.7307 9.36546 21.7443 7.87853 21.6601 6.38073C21.5758 4.641 21.1789 3.09699 19.9068 1.82481C18.6319 0.549911 17.0906 0.155753 15.3509 0.0714851C13.8504 -0.0127831 12.3635 0.000808551 10.8658 0.000808551C9.36528 0.000808551 7.87838 -0.0127831 6.38061 0.0714851C4.64091 0.155753 3.09693 0.552629 1.82477 1.82481C0.549901 3.0997 0.15575 4.641 0.0714838 6.38073C-0.0127829 7.88125 0.000808536 9.36817 0.000808536 10.866C0.000808536 12.3638 -0.0127829 13.8534 0.0714838 15.3512C0.15575 17.091 0.552619 18.635 1.82477 19.9071C3.09965 21.182 4.64091 21.5762 6.38061 21.6605C7.8811 21.7447 9.368 21.7311 10.8658 21.7311C12.3663 21.7311 13.8532 21.7447 15.3509 21.6605C17.0906 21.5762 18.6346 21.1793 19.9068 19.9071C21.1816 18.6322 21.5758 17.091 21.6601 15.3512C21.747 13.8534 21.7307 12.3665 21.7307 10.866ZM10.8631 16.4413C7.77781 16.4413 5.28786 13.9513 5.28786 10.866C5.28786 7.78067 7.77781 5.29068 10.8631 5.29068C13.9483 5.29068 16.4382 7.78067 16.4382 10.866C16.4382 13.9513 13.9483 16.4413 10.8631 16.4413ZM16.6666 6.36442C15.9462 6.36442 15.3645 5.7827 15.3645 5.06234C15.3645 4.34198 15.9462 3.76026 16.6666 3.76026C17.3869 3.76026 17.9686 4.34198 17.9686 5.06234C17.9689 5.23339 17.9353 5.4028 17.87 5.56088C17.8046 5.71895 17.7087 5.86258 17.5877 5.98353C17.4668 6.10448 17.3232 6.20038 17.1651 6.26574C17.007 6.3311 16.8376 6.36463 16.6666 6.36442Z" fill="#DE3343"/>
</svg>
