<svg width="23" height="23" viewBox="0 0 23 23" fill="none" xmlns="http://www.w3.org/2000/svg">
<path d="M5.04503 22.5368H0.372663V7.49028H5.04503V22.5368ZM2.70603 5.43782C1.21216 5.43782 0 4.1999 0 2.70603C0 1.98835 0.285099 1.30006 0.792578 0.792578C1.30006 0.285099 1.98835 0 2.70603 0C3.42371 0 4.112 0.285099 4.61948 0.792578C5.12696 1.30006 5.41206 1.98835 5.41206 2.70603C5.41206 4.1999 4.1999 5.43782 2.70603 5.43782ZM22.532 22.5368H17.8701V15.2124C17.8701 13.4666 17.8347 11.2282 15.441 11.2282C13.0118 11.2282 12.6391 13.1245 12.6391 15.0868V22.5368H7.9716V7.49028H12.4524V9.54274H12.5176C13.1414 8.36036 14.665 7.11279 16.938 7.11279C21.6668 7.11279 22.536 10.2269 22.536 14.2715V22.5368H22.532Z" fill="#DE3343"/>
</svg>
